<?xml version="1.0" standalone="no"?>
<!DOCTYPE svg PUBLIC "-//W3C//DTD SVG 20010904//EN"
 "http://www.w3.org/TR/2001/REC-SVG-20010904/DTD/svg10.dtd">
<svg version="1.0" xmlns="http://www.w3.org/2000/svg"
 width="1024.000000pt" height="1024.000000pt" viewBox="0 0 1024.000000 1024.000000"
 preserveAspectRatio="xMidYMid meet">

<g transform="translate(0.000000,1024.000000) scale(0.100000,-0.100000)"
fill="#000000" stroke="none">
<path d="M0 8766 l0 -1474 569 0 570 -1 3 362 3 362 33 68 c36 72 82 115 150
139 30 11 736 13 3802 13 l3765 0 47 -23 c55 -27 103 -78 132 -141 l21 -46 3
-2027 2 -2027 33 13 c17 7 75 16 128 19 90 5 96 4 92 -13 -4 -15 -19 -18 -101
-22 -54 -3 -109 -11 -125 -18 l-27 -13 2 -456 3 -455 65 -18 c36 -9 132 -35
213 -56 81 -22 151 -42 154 -46 4 -3 19 -6 34 -6 15 0 31 -5 34 -10 3 -6 -1
-10 -10 -10 -23 0 -342 75 -419 99 -38 12 -70 21 -72 21 -2 0 -4 -33 -4 -74 0
-58 -4 -79 -17 -92 -17 -17 -18 106 -23 2587 -3 1549 -9 2612 -14 2624 -25 55
-69 105 -109 124 l-43 21 -3772 0 c-2309 0 -3780 -4 -3795 -9 -42 -16 -99 -74
-121 -121 l-21 -45 -5 -2600 c-5 -2480 -6 -2599 -23 -2575 -16 23 -17 145 -17
2218 l0 2193 -570 -2 -570 -2 0 -3623 0 -3624 5120 0 5120 0 0 1379 0 1379
-82 11 c-106 15 -118 19 -118 37 0 8 4 13 9 9 5 -3 12 -1 16 5 3 5 1 10 -4 10
-6 0 -11 5 -11 10 0 6 38 10 95 10 l95 0 0 1226 0 1226 -114 -3 c-96 -4 -119
-7 -143 -25 -58 -41 -93 -147 -167 -504 -50 -238 -74 -423 -81 -605 -15 -397
-22 -905 -15 -958 5 -31 22 -87 39 -122 16 -36 27 -65 23 -65 -19 0 -83 54
-103 87 -27 43 -28 67 -20 673 6 509 42 790 163 1250 48 183 70 244 103 285
l25 30 145 3 145 3 0 65 0 64 -215 0 c-137 0 -215 4 -215 10 0 6 78 10 215 10
l215 0 0 34 0 33 -78 -1 c-42 -1 -139 0 -214 2 -117 2 -138 4 -138 18 0 13 26
15 215 12 l215 -3 0 33 0 32 -215 0 c-184 0 -215 2 -215 15 0 13 27 15 184 15
221 0 246 4 246 36 l0 24 -177 1 c-98 1 -195 1 -215 0 -33 -2 -38 0 -38 18 0
21 4 21 215 21 l215 0 0 30 0 30 -215 0 c-184 0 -215 2 -215 15 0 13 31 15
215 15 l215 0 0 30 0 30 -212 2 c-182 3 -213 5 -213 18 0 13 31 15 213 18
l212 2 0 30 0 30 -215 0 c-184 0 -215 2 -215 15 0 13 31 15 215 15 l215 0 0
30 0 30 -215 0 c-184 0 -215 2 -215 15 0 13 31 15 215 15 l215 0 0 35 0 35
-215 0 c-184 0 -215 2 -215 15 0 13 31 15 215 15 l215 0 0 30 0 30 -215 0
c-184 0 -215 2 -215 15 0 13 31 15 215 15 l215 0 0 35 0 35 -215 0 c-137 0
-215 4 -215 10 0 10 6 11 268 12 l162 1 0 27 c0 25 -4 28 -52 34 -29 3 -126 6
-215 6 -138 0 -163 2 -163 15 0 13 31 15 215 15 l215 0 0 310 0 310 -381 0
-382 0 7 -82 c6 -89 20 -290 36 -563 6 -96 7 -218 3 -280 -4 -60 -9 -99 -10
-85 -5 46 -54 793 -60 923 l-6 127 396 0 397 0 0 110 0 110 -448 0 c-389 0
-450 -2 -470 -16 -19 -13 -22 -13 -22 -1 0 41 15 42 487 45 l453 3 0 1394 0
1395 -5120 0 -5120 0 0 -1474z m1200 1154 c0 -13 -7 -20 -20 -20 -19 0 -27 20
-13 33 13 14 33 6 33 -13z m5195 -21 c0 -17 -6 -24 -20 -24 -23 0 -33 34 -13
46 20 13 33 5 33 -22z m1265 -99 c0 -5 -5 -10 -11 -10 -5 0 -7 5 -4 10 3 6 8
10 11 10 2 0 4 -4 4 -10z m-2994 -277 c-10 -10 -19 5 -10 18 6 11 8 11 12 0 2
-7 1 -15 -2 -18z m-1910 -17 c26 -26 34 -42 33 -67 l-2 -34 -6 33 c-7 36 -8
37 -33 27 -11 -5 -18 -18 -18 -35 0 -34 21 -55 38 -38 9 9 12 8 12 -3 0 -21
-39 -55 -72 -63 -90 -21 -164 96 -107 168 44 56 106 61 155 12z m2634 25 c0
-6 -4 -13 -10 -16 -5 -3 -10 1 -10 9 0 9 5 16 10 16 6 0 10 -4 10 -9z m825
-166 c0 -28 -29 -25 -33 3 -3 19 0 23 15 20 10 -2 18 -12 18 -23z m1539 -14
c3 -4 0 -16 -7 -25 -12 -16 -14 -16 -26 -2 -7 8 -10 20 -6 26 8 12 32 13 39 1z
m-6831 -66 c-3 -8 -9 -15 -14 -15 -10 0 -12 24 -3 33 11 11 24 -3 17 -18z
m234 -41 c-9 -9 -28 6 -21 18 4 6 10 6 17 -1 6 -6 8 -13 4 -17z m6883 6 c0
-11 -7 -20 -15 -20 -8 0 -15 9 -15 20 0 11 7 20 15 20 8 0 15 -9 15 -20z
m1176 9 c10 -17 -13 -36 -27 -22 -12 12 -4 33 11 33 5 0 12 -5 16 -11z m-5791
-49 c4 -6 1 -18 -6 -26 -11 -13 -14 -13 -27 0 -8 8 -11 19 -8 25 9 14 33 14
41 1z m6325 -45 c0 -8 -4 -15 -10 -15 -5 0 -10 7 -10 15 0 8 5 15 10 15 6 0
10 -7 10 -15z m-2854 -16 c9 -15 -11 -33 -30 -26 -9 4 -13 13 -10 22 7 17 30
20 40 4z m742 -10 c-2 -6 -8 -10 -13 -10 -5 0 -11 4 -13 10 -2 6 4 11 13 11 9
0 15 -5 13 -11z m-1984 -54 c3 -9 -1 -18 -10 -22 -19 -7 -28 2 -21 22 8 19 23
19 31 0z m-2466 -17 c26 -26 7 -78 -28 -78 -9 0 -25 9 -35 20 -37 41 24 97 63
58z m6442 -135 l50 -47 -51 -52 -52 -53 -51 46 c-28 25 -51 50 -51 56 0 12 85
96 97 97 4 0 30 -21 58 -47z m-7925 12 c0 -28 -29 -25 -33 3 -3 19 0 23 15 20
10 -2 18 -12 18 -23z m-1060 -55 c-13 -41 -12 -76 2 -92 23 -26 9 -68 -21 -68
-29 0 -83 42 -83 64 0 9 3 14 5 11 3 -3 12 4 20 16 10 15 17 18 25 10 18 -18
28 -12 15 9 -10 16 -9 23 12 45 28 30 33 31 25 5z m8285 -49 c0 -10 -7 -24
-15 -31 -30 -25 -62 29 -33 58 15 15 48 -3 48 -27z m-2405 -41 c0 -36 -29 -33
-33 3 -3 23 0 28 15 25 12 -2 18 -12 18 -28z m-2835 -40 c0 -13 -7 -20 -20
-20 -13 0 -20 7 -20 20 0 13 7 20 20 20 13 0 20 -7 20 -20z m-1286 1 c10 -16
-6 -42 -23 -39 -9 2 -17 13 -19 26 -3 16 2 22 17 22 11 0 22 -4 25 -9z m2554
-88 c-5 -25 -28 -28 -28 -4 0 12 6 21 16 21 9 0 14 -7 12 -17z m-3438 -29 c0
-15 -6 -24 -15 -24 -18 0 -30 24 -21 45 8 22 36 6 36 -21z m2510 6 c0 -11 -6
-20 -14 -20 -18 0 -29 16 -21 30 11 18 35 11 35 -10z m-1955 -63 c0 -26 -20
-25 -23 2 -3 16 1 22 10 19 7 -3 13 -12 13 -21z m6225 8 c0 -8 -4 -15 -10 -15
-5 0 -10 7 -10 15 0 8 5 15 10 15 6 0 10 -7 10 -15z m-7830 -40 c0 -15 -6 -25
-14 -25 -19 0 -28 14 -20 34 10 25 34 19 34 -9z m4240 -76 c0 -10 -7 -19 -15
-19 -15 0 -21 31 -9 43 11 10 24 -3 24 -24z m-3910 -29 c0 -23 -25 -27 -33 -6
-7 16 1 26 20 26 7 0 13 -9 13 -20z m8590 6 c0 -21 -21 -31 -30 -15 -5 7 -6
17 -4 21 9 14 34 9 34 -6z m247 -242 c-3 -4 1 -13 9 -21 8 -9 13 -20 11 -27
-2 -6 9 -19 25 -28 58 -36 61 -96 8 -149 -42 -42 -88 -40 -129 6 -43 50 -42
87 6 134 21 20 36 40 35 44 -4 13 18 47 30 47 6 0 9 -3 5 -6z m-3967 -249
c310 -106 530 -299 637 -560 52 -130 67 -210 67 -370 0 -77 -3 -152 -7 -167
l-7 -27 -66 50 c-196 148 -628 298 -934 323 -116 10 -383 8 -485 -4 -335 -38
-738 -185 -938 -342 -21 -17 -40 -28 -43 -25 -27 26 -33 274 -10 383 38 177
122 327 275 487 84 88 237 177 416 243 l90 33 466 1 465 0 74 -25z m-1316 6
c3 -5 -27 -28 -67 -51 -393 -232 -682 -608 -787 -1025 -55 -215 -63 -314 -57
-670 10 -497 39 -781 93 -886 13 -26 12 -27 -19 -32 -18 -2 -37 -1 -43 4 -30
24 -76 525 -91 983 -3 113 -9 203 -14 201 -4 -3 -10 -32 -14 -65 -4 -34 -12
-60 -18 -60 -7 0 -5 -5 3 -10 13 -8 12 -11 -5 -24 -23 -17 -39 -21 -30 -7 3 5
1 12 -5 16 -5 3 -10 2 -10 -4 0 -5 -7 -17 -15 -25 -31 -31 -48 -151 -49 -349
l-1 -189 32 -28 c30 -27 87 -50 126 -50 10 0 17 -8 17 -20 0 -29 -16 -25 -95
23 -50 30 -75 52 -88 79 -40 81 -47 487 -12 623 27 101 83 167 146 169 24 1
30 6 34 31 2 17 11 77 20 135 54 350 197 638 441 890 130 134 255 228 397 300
110 56 104 53 111 41z m1671 -46 c175 -93 402 -291 518 -452 184 -257 281
-516 313 -836 4 -41 11 -67 18 -65 44 8 115 -41 145 -100 28 -54 41 -176 41
-385 0 -223 -12 -310 -45 -347 -22 -24 -131 -80 -156 -80 -27 0 -16 33 12 37
48 6 109 35 129 61 16 20 21 40 21 96 0 206 -3 295 -12 331 -6 22 -10 48 -10
58 0 9 -5 17 -10 17 -6 0 -8 4 -5 9 4 5 2 20 -3 33 -8 19 -10 20 -10 4 -1 -16
-3 -16 -17 -5 -13 10 -17 10 -25 -2 -7 -12 -9 -12 -10 1 -1 8 -7 -3 -14 -25
-13 -38 -13 -35 -14 70 0 61 -4 121 -10 135 -12 30 -13 24 -11 -55 4 -204 -56
-989 -82 -1075 -16 -52 -26 -62 -52 -48 -11 6 -22 12 -24 13 -2 2 6 31 18 65
42 124 65 376 76 830 7 265 -5 435 -42 620 -49 244 -183 512 -356 717 -118
140 -227 233 -426 366 -45 30 -79 57 -76 60 8 8 36 -3 119 -48z m-3943 -77
c-9 -9 -12 -7 -12 12 0 19 3 21 12 12 9 -9 9 -15 0 -24z m4781 -14 c9 -10 -4
-34 -19 -34 -8 0 -14 9 -14 20 0 19 19 27 33 14z m-3373 -43 c0 -5 6 -16 14
-23 11 -12 11 -17 0 -33 -11 -15 -17 -16 -26 -7 -7 7 -20 12 -30 12 -23 0 -23
4 5 34 24 26 37 32 37 17z m-3187 -32 c15 -24 1 -49 -27 -49 -16 0 -25 7 -29
22 -11 42 33 63 56 27z m9777 0 c20 -36 -23 -67 -50 -34 -16 19 -3 55 20 55
11 0 24 -9 30 -21z m-7167 -59 c7 -26 -15 -53 -39 -48 -20 3 -30 29 -20 54 8
22 53 18 59 -6z m4665 -24 c-2 -13 -10 -21 -23 -21 -23 0 -33 34 -14 45 20 13
40 -1 37 -24z m-5708 -47 c0 -12 -7 -19 -20 -19 -19 0 -28 28 -14 43 11 11 34
-5 34 -24z m473 -179 c36 -34 80 -78 97 -100 27 -35 30 -42 19 -62 -22 -40
-131 -148 -151 -148 -18 0 -18 1 -2 28 9 16 41 55 70 87 30 32 53 59 52 60 -2
1 -10 6 -19 11 -17 9 -159 169 -159 179 0 18 36 -3 93 -55z m-154 -26 c44 -36
68 -74 76 -116 6 -33 3 -41 -35 -82 -40 -43 -70 -59 -70 -37 0 10 76 101 94
113 6 4 2 10 -11 15 -17 7 -62 61 -97 121 -12 21 11 13 43 -14z m5879 -1 c55
-36 68 -68 53 -130 -7 -27 -23 -65 -37 -85 -13 -21 -24 -40 -24 -43 0 -3 -13
-19 -30 -36 -16 -18 -27 -35 -25 -40 3 -4 1 -10 -4 -14 -6 -3 -8 4 -6 16 4 20
3 20 -20 5 -34 -22 -75 -20 -103 7 l-25 22 13 -25 13 -25 -23 20 c-46 41 -62
125 -40 207 13 44 57 101 72 91 7 -3 8 -1 4 5 -4 7 4 16 21 23 15 6 35 15 43
19 29 17 76 10 118 -17z m-5744 -45 c51 -59 54 -80 20 -126 -42 -56 -94 -98
-94 -76 0 11 24 50 53 86 32 40 31 45 -22 112 -63 79 -24 83 43 4z m4806 3 c0
-5 2 -15 5 -23 4 -9 -4 -13 -24 -14 -29 -1 -29 -1 -13 22 18 24 32 31 32 15z
m-3900 -21 c14 -26 -3 -60 -30 -60 -11 0 -24 9 -30 20 -14 26 3 60 30 60 11 0
24 -9 30 -20z m-1282 -37 c-21 -2 -55 -2 -75 0 -21 2 -4 4 37 4 41 0 58 -2 38
-4z m6711 -37 c15 -18 3 -46 -19 -46 -24 0 -33 15 -25 40 7 23 28 26 44 6z
m-6502 -153 c-3 -10 -5 -4 -5 12 0 17 2 24 5 18 2 -7 2 -21 0 -30z m5913 4 c0
-2 -12 -14 -27 -28 l-28 -24 24 28 c23 25 31 32 31 24z m-5090 -62 c0 -8 -7
-15 -15 -15 -8 0 -15 7 -15 15 0 8 7 15 15 15 8 0 15 -7 15 -15z m4395 -45 c0
-18 -6 -26 -23 -28 -24 -4 -38 18 -28 44 3 9 15 14 28 12 17 -2 23 -10 23 -28z
m-4687 3 c5 -10 15 -53 22 -95 15 -85 18 -88 98 -88 32 0 41 3 36 13 -4 6 3 3
15 -8 l23 -20 -79 -3 -80 -3 -6 -62 c-9 -85 -25 -137 -43 -137 -23 0 -44 62
-44 129 0 68 -4 71 -108 71 -40 0 -61 4 -57 10 3 6 28 10 54 10 27 0 63 3 80
6 31 6 31 7 31 66 0 60 21 128 39 128 6 0 14 -8 19 -17z m-984 -9 c19 -7 21
-40 4 -47 -29 -10 -53 25 -31 46 8 8 8 8 27 1z m1536 -89 c5 -14 17 -25 26
-25 13 0 11 -6 -10 -25 -14 -13 -26 -30 -26 -37 0 -7 -9 2 -21 21 -18 30 -19
35 -5 50 9 10 16 23 16 29 0 20 10 13 20 -13z m3769 -19 c15 -18 3 -46 -19
-46 -22 0 -30 19 -18 43 11 21 22 22 37 3z m1565 -3 c8 -19 -17 -48 -33 -39
-12 8 -15 39 -4 49 12 12 31 7 37 -10z m-5997 -139 c-3 -3 -12 -4 -19 -1 -8 3
-5 6 6 6 11 1 17 -2 13 -5z m7130 -1500 c16 -28 50 -49 100 -64 30 -9 40 -17
36 -27 -8 -22 -75 -11 -119 19 -19 12 -43 41 -54 64 -19 39 -20 62 -20 757 0
631 2 717 15 717 8 0 16 6 17 13 2 6 5 -319 8 -723 4 -548 8 -740 17 -756z
m-7582 1327 c10 -45 80 -119 126 -132 43 -13 52 -29 16 -29 -29 0 -101 -50
-119 -82 -7 -13 -20 -45 -30 -73 -14 -44 -16 -46 -17 -20 -3 79 -87 175 -153
175 -41 0 -34 16 11 24 29 4 49 18 85 56 25 27 49 63 52 80 8 38 21 38 29 1z
m3655 19 c-150 -9 -1173 -10 -1315 0 -60 3 237 7 660 7 424 0 718 -4 655 -7z
m2488 -14 c2 -10 -1 -23 -7 -29 -15 -15 -46 16 -37 38 8 21 40 15 44 -9z m342
-186 c0 -13 -7 -20 -20 -20 -13 0 -20 7 -20 20 0 13 7 20 20 20 13 0 20 -7 20
-20z m-4110 -110 l0 -39 -67 -3 -68 -3 -3 -47 -4 -48 56 0 56 0 0 -40 0 -40
-55 0 -55 0 0 -44 c0 -41 2 -44 31 -50 17 -3 49 -6 70 -6 39 0 39 0 39 -40 l0
-40 -105 0 -105 0 0 220 0 220 105 0 105 0 0 -40z m240 1 c0 -47 -16 -56 -83
-46 -40 6 -45 5 -50 -17 -4 -12 -7 -35 -7 -50 0 -27 2 -28 55 -28 l55 0 0 -40
0 -40 -55 0 c-60 0 -62 -3 -49 -69 6 -31 7 -31 70 -31 l64 0 0 -40 0 -40 -105
0 -105 0 0 214 c0 162 3 216 13 219 6 3 54 6 105 6 l92 1 0 -39z m255 9 c23
-22 25 -30 25 -112 0 -73 -3 -91 -19 -107 -19 -19 -107 -37 -141 -29 -12 2
-14 -10 -11 -79 l3 -83 -41 0 -41 0 0 214 c0 248 -11 226 117 222 71 -2 86 -6
108 -26z m475 -9 c0 -45 -11 -51 -89 -43 l-51 5 0 -52 0 -51 60 0 60 0 0 -40
0 -40 -60 0 -60 0 0 -90 0 -90 -40 0 -40 0 0 214 c0 162 3 216 13 219 6 3 56
6 110 6 l97 1 0 -39z m105 -184 l1 -217 -38 0 -38 0 0 221 0 220 38 -3 37 -4
0 -217z m255 184 c0 -38 -2 -40 -34 -46 -18 -4 -48 -5 -67 -3 l-34 3 -3 -47
-2 -47 57 -3 c52 -3 57 -5 58 -28 4 -44 -4 -50 -62 -50 l-54 0 3 -47 3 -48 68
-3 67 -3 0 -39 0 -40 -105 0 -105 0 0 219 0 219 105 1 105 2 0 -40z m94 33
c14 -5 16 -31 16 -180 l0 -174 59 0 c58 0 60 -1 66 -31 4 -17 3 -35 -2 -40 -6
-6 -52 -8 -104 -7 l-94 3 -3 205 c-1 112 0 210 2 217 6 14 34 17 60 7z m398
-31 c22 -23 23 -33 26 -184 l3 -159 -30 -30 c-29 -29 -32 -30 -124 -30 l-94 0
-7 46 c-3 26 -6 122 -6 215 l0 168 78 3 c105 4 127 0 154 -29z m1706 25 c19
-19 14 -46 -10 -59 -18 -10 -24 -8 -35 7 -7 10 -13 23 -13 29 0 14 21 35 35
35 6 0 16 -5 23 -12z m-6388 -33 c0 -21 -34 -37 -48 -23 -26 26 -2 64 30 47
10 -5 18 -16 18 -24z m2581 9 c22 -24 24 -34 27 -157 6 -227 -8 -247 -170
-247 l-88 0 0 215 0 215 103 0 c98 0 105 -1 128 -26z m-1803 -132 c3 -18 -1
-22 -22 -22 -19 0 -26 5 -26 18 0 39 43 43 48 4z m5180 -95 c-2 -11 -9 -22
-15 -25 -16 -4 -27 22 -19 43 8 22 38 6 34 -18z m-4890 -1 c6 -29 -15 -43 -35
-24 -14 14 -14 20 -3 33 16 19 34 15 38 -9z m5675 -52 c27 -36 47 -69 45 -73
-2 -5 -27 -35 -57 -67 -42 -46 -55 -55 -61 -43 -5 9 -27 37 -48 65 l-40 49 49
56 c27 31 49 62 49 68 0 22 16 8 63 -55z m-6513 26 c0 -23 -35 -28 -43 -6 -7
18 1 26 25 26 11 0 18 -7 18 -20z m-175 -220 c0 -29 -32 -41 -41 -16 -9 24 4
48 23 44 12 -2 18 -12 18 -28z m7694 -185 c5 -77 15 -223 21 -325 6 -102 15
-255 20 -340 6 -85 12 -207 15 -270 14 -292 23 -418 34 -438 11 -20 20 -22 91
-22 73 0 80 -2 80 -20 0 -27 -33 -33 -115 -23 -106 13 -101 0 -120 368 -8 171
-17 342 -20 380 -2 39 -7 135 -10 215 -4 80 -8 174 -10 210 -7 127 -8 416 -1
409 2 -2 9 -67 15 -144z m-4169 22 c19 -9 60 -37 90 -62 182 -149 437 -190
718 -114 87 23 154 55 241 116 35 24 65 42 68 40 2 -3 -24 -29 -57 -60 -127
-115 -296 -170 -515 -170 -198 1 -355 47 -460 135 -139 117 -194 120 -331 17
-155 -117 -275 -154 -489 -152 -216 2 -375 58 -501 175 -66 62 -83 95 -20 40
44 -38 146 -98 210 -124 180 -71 470 -68 629 5 29 13 89 52 135 87 45 34 99
69 120 76 45 17 115 13 162 -9z m-2628 -14 c-5 -24 -6 -25 -12 -8 -8 21 -4 35
9 35 5 0 6 -12 3 -27z m-2329 -130 c74 -158 186 -448 177 -457 -13 -13 -37 9
-44 42 -8 33 -68 184 -71 180 -2 -2 12 -48 31 -103 18 -55 33 -106 33 -113 1
-8 -10 -12 -31 -10 -30 2 -33 5 -35 37 -2 36 -49 263 -61 291 -3 8 -6 20 -7
25 -1 6 -11 43 -24 83 -12 40 -19 77 -16 82 3 6 3 15 -1 22 -5 7 -11 5 -21 -7
-7 -11 -13 -14 -13 -9 0 6 5 15 12 22 17 17 30 2 71 -85z m3131 -3 c2 -57 12
-124 24 -167 l21 -72 -39 25 c-52 34 -70 76 -70 161 0 99 22 160 53 150 5 -1
10 -45 11 -97z m3509 45 c20 -57 18 -154 -4 -201 -13 -27 -77 -79 -87 -70 -2
3 5 32 17 65 16 46 21 85 21 162 0 90 2 100 18 97 10 -2 24 -22 35 -53z
m-4272 27 c13 3 32 9 42 13 16 7 18 4 12 -27 -6 -30 -3 -38 19 -56 32 -25 32
-28 1 -36 -18 -5 -27 -15 -32 -36 -6 -33 -26 -38 -56 -16 -14 11 -27 11 -58 4
-22 -6 -42 -8 -45 -5 -3 3 6 22 21 41 l27 35 -27 35 -26 34 41 7 c22 4 40 12
40 18 0 8 4 7 9 -2 5 -8 18 -12 32 -9z m5366 4 c79 -17 147 -44 200 -81 45
-30 41 -32 -15 -5 -124 60 -298 50 -437 -27 -53 -29 -134 -103 -129 -117 3 -8
0 -17 -7 -22 -8 -5 -10 -3 -4 6 6 9 4 11 -4 6 -7 -5 -10 -14 -7 -22 3 -8 0
-13 -6 -11 -16 3 -54 -67 -74 -133 -24 -82 -21 -211 7 -285 12 -33 32 -77 45
-97 40 -63 129 -142 199 -178 62 -31 78 -35 174 -39 86 -4 98 -6 66 -12 -287
-55 -563 118 -621 390 -38 182 11 346 146 482 128 129 294 181 467 145z
m-2795 -47 c53 -34 98 -82 98 -105 0 -26 -48 -91 -83 -113 -48 -29 -116 -37
-154 -18 -39 21 -101 90 -109 122 -8 31 25 71 95 116 57 37 93 36 153 -2z
m-5067 -59 c-9 -16 -18 -30 -21 -30 -2 0 2 14 11 30 9 17 18 30 21 30 2 0 -2
-13 -11 -30z m7509 -105 c-4 -8 -11 -15 -16 -15 -6 0 -5 6 2 15 7 8 14 15 16
15 2 0 1 -7 -2 -15z m2496 5 c0 -6 -62 -10 -165 -10 -103 0 -165 4 -165 10 0
6 62 10 165 10 103 0 165 -4 165 -10z m-264 -85 c-26 -19 -56 -19 -56 0 0 11
11 15 38 15 35 -1 36 -2 18 -15z m-6878 -52 c-2 -20 -9 -28 -23 -28 -14 0 -21
8 -23 28 -3 23 0 27 23 27 23 0 26 -4 23 -27z m-945 -97 c18 -7 45 -28 60 -45
22 -26 27 -43 27 -85 0 -44 -4 -56 -27 -78 -32 -31 -73 -48 -111 -48 -26 1
-26 2 10 20 48 26 68 56 68 103 0 80 -61 139 -122 118 -17 -6 -34 -11 -37 -11
-11 0 34 28 54 33 34 8 45 7 78 -7z m8072 -86 c18 -8 17 -9 -7 -9 -22 -1 -34
-12 -62 -55 -45 -70 -65 -139 -73 -248 -4 -60 -10 -88 -18 -88 -17 0 -25 34
-24 100 0 50 15 158 18 136 0 -6 19 27 40 71 48 98 72 116 126 93z m-9656 -97
c6 -32 15 -85 21 -118 14 -87 68 -606 80 -770 6 -77 17 -210 25 -295 8 -85 24
-274 36 -420 34 -430 37 -408 -55 -425 -39 -8 -39 -8 -33 21 5 26 -24 567 -38
704 -6 63 -17 345 -17 470 -1 47 -2 81 -4 75 -1 -5 -5 -22 -8 -37 -4 -16 -13
-28 -20 -28 -16 0 -25 45 -56 280 -11 85 -25 170 -31 188 -15 47 3 342 21 342
10 0 22 -79 14 -92 -4 -7 -2 -8 4 -4 7 4 12 1 12 -6 0 -9 3 -9 10 2 9 14 7 51
-6 123 -5 23 -10 28 -32 25 -15 -1 -32 -6 -39 -11 -7 -5 -20 -4 -32 3 -15 7
-21 7 -21 0 0 -6 11 -15 25 -20 29 -11 33 -30 8 -30 -16 0 -16 2 -3 11 12 9
10 10 -8 6 -13 -3 -21 -3 -18 0 3 4 -3 17 -15 29 l-21 22 69 7 c37 3 77 7 88
9 30 3 31 1 44 -61z m3102 35 c17 -32 20 -81 4 -68 -19 15 -38 -15 -45 -68 -4
-34 -10 -46 -24 -48 -17 -2 -18 3 -13 54 3 38 14 73 33 105 16 26 30 47 31 47
1 0 8 -10 14 -22z m1624 0 c-2 -13 -6 -57 -7 -98 -3 -71 -2 -75 20 -78 17 -3
22 2 23 20 1 22 2 22 12 -4 19 -49 49 -37 82 33 40 82 48 83 24 2 -10 -38 -17
-73 -15 -79 3 -7 19 -10 37 -8 18 2 36 -1 39 -7 7 -10 100 104 100 122 0 5 8
9 18 9 10 0 13 -3 6 -8 -6 -4 -29 -40 -51 -81 l-41 -75 30 -16 c28 -15 33 -14
72 4 24 11 47 29 52 40 11 24 34 33 34 14 0 -8 -20 -31 -45 -51 -54 -45 -60
-71 -15 -65 26 4 29 2 24 -14 -8 -27 5 -58 25 -58 10 0 48 15 85 33 78 39 87
32 17 -13 -65 -41 -77 -56 -62 -74 7 -8 22 -13 33 -11 19 4 19 3 4 -14 -20
-22 -20 -37 -2 -44 49 -19 202 61 374 195 34 26 62 44 62 40 0 -5 -28 -39 -62
-77 -65 -71 -148 -137 -201 -160 -31 -14 -31 -14 38 -15 201 -1 869 -21 995
-30 79 -5 146 -8 148 -5 8 8 -32 124 -66 190 -25 46 -64 96 -119 152 -68 68
-83 89 -83 114 l0 30 32 -18 c60 -34 135 -118 172 -190 39 -79 76 -199 76
-250 0 -29 3 -33 28 -33 15 0 38 -3 51 -7 21 -5 23 -3 17 18 -6 19 -42 98
-105 223 -9 19 63 -31 94 -65 30 -34 75 -131 75 -164 0 -17 32 -21 245 -35 88
-6 239 -17 335 -25 96 -8 200 -17 230 -19 30 -3 129 -11 220 -20 91 -8 230
-20 310 -26 80 -6 169 -13 198 -16 l52 -5 0 -129 c0 -127 -7 -157 -33 -131 -8
8 -17 5 -34 -11 -28 -26 -29 -34 -3 -41 11 -3 20 -12 20 -20 0 -20 -27 -40
-45 -33 -8 3 -15 0 -15 -7 0 -7 -5 -4 -11 6 -5 9 -21 17 -35 17 -14 0 -22 -4
-19 -10 3 -5 1 -10 -4 -10 -6 0 -11 4 -11 8 0 5 -21 10 -47 11 -26 1 -49 3
-51 6 -3 3 -11 0 -19 -7 -12 -10 -12 -7 -3 14 9 20 24 28 68 38 31 7 77 12
101 12 49 -1 82 15 59 29 -19 12 -126 11 -133 -1 -4 -6 -10 -8 -15 -5 -9 5
-70 -14 -126 -41 -34 -16 -38 -16 -114 10 -58 19 -104 27 -174 30 -64 2 -93 0
-89 -7 4 -7 -1 -8 -13 -3 -10 4 -28 9 -39 10 -11 2 -35 6 -52 10 -18 4 -33 5
-33 2 0 -8 99 -35 153 -41 26 -3 67 -7 90 -10 24 -3 66 -12 93 -20 27 -8 54
-15 59 -16 6 -1 31 -9 56 -20 26 -10 50 -15 53 -11 4 3 4 -1 0 -11 -4 -12 -1
-17 13 -17 11 0 23 3 26 7 14 14 57 9 57 -7 0 -13 1 -13 10 0 7 11 10 11 10 2
0 -7 4 -10 10 -7 6 4 7 -1 3 -12 -6 -16 -5 -17 12 -3 16 14 17 13 11 -8 -9
-26 -3 -28 20 -5 16 16 16 16 10 -5 -6 -18 -4 -21 11 -16 16 5 16 4 -1 -7 -15
-9 -24 -8 -47 5 -23 14 -28 14 -23 3 3 -8 1 -17 -4 -21 -5 -3 -9 1 -10 9 -1 8
-3 22 -4 30 -1 8 -6 15 -11 15 -5 0 -7 -12 -4 -27 l6 -28 -12 28 c-6 15 -18
27 -26 26 -11 0 -12 -2 -3 -6 19 -7 14 -19 -8 -20 -11 -1 -20 2 -20 8 0 5 -5
9 -11 9 -5 0 -7 -4 -4 -10 8 -13 8 -13 -50 9 -27 11 -49 25 -47 31 1 6 -2 9
-8 5 -6 -4 -19 -3 -28 1 -59 25 -140 42 -243 48 -124 8 -173 20 -289 69 -109
46 -209 72 -223 58 -6 -6 -7 -14 -2 -18 4 -5 10 -2 12 5 3 6 9 12 14 12 4 0 6
-6 3 -14 -11 -29 246 -130 362 -143 38 -4 72 -6 77 -5 4 1 7 -2 7 -7 0 -5 9
-7 19 -4 25 6 131 -16 131 -27 0 -5 6 -7 14 -4 8 3 16 -4 20 -19 6 -24 11 -26
65 -30 16 -1 28 -4 26 -6 -3 -2 0 -13 6 -25 9 -19 9 -19 -4 -3 -15 17 -33 24
-23 8 3 -5 -1 -11 -9 -14 -10 -4 -12 -1 -8 10 4 11 3 14 -6 9 -6 -4 -19 -2
-28 6 -9 7 -28 19 -42 25 -21 10 -22 12 -4 7 17 -4 21 -2 17 9 -6 16 -35 18
-46 3 -8 -12 -48 -15 -48 -4 0 4 -12 8 -27 8 -16 1 -44 1 -63 1 -107 0 -339
63 -463 126 -49 24 -87 27 -94 8 -4 -13 92 -59 240 -115 77 -30 107 -46 107
-58 0 -10 -3 -13 -8 -7 -4 6 -18 16 -32 23 l-25 13 24 -21 c13 -11 18 -20 12
-20 -6 0 -11 -4 -11 -10 0 -5 7 -10 15 -10 13 0 13 -3 3 -13 -10 -12 -15 -10
-31 7 -10 12 -16 16 -13 9 4 -6 1 -15 -5 -19 -8 -5 -9 -3 -4 6 5 9 2 10 -13 6
-12 -4 -26 -1 -35 8 -8 8 -17 13 -20 10 -10 -10 -128 56 -121 68 4 7 3 8 -5 4
-6 -4 -37 8 -69 28 -76 46 -101 55 -176 62 -53 5 -64 4 -69 -10 -4 -10 -1 -18
6 -21 110 -34 152 -51 191 -76 43 -26 119 -91 89 -75 -7 4 -13 2 -13 -4 0 -6
-5 -8 -11 -4 -8 4 -7 9 2 15 11 7 10 9 -3 9 -9 0 -20 -4 -23 -10 -3 -5 -12
-10 -18 -10 -8 0 -8 3 2 9 9 6 5 9 -14 9 -16 0 -22 -4 -15 -8 8 -5 4 -9 -10
-13 -15 -4 -20 -2 -17 8 4 8 -1 11 -13 8 -10 -3 -37 8 -61 23 -75 47 -162 82
-250 100 -46 9 -86 19 -89 23 -3 3 -18 14 -35 23 -16 10 -29 22 -28 27 1 5 -8
7 -20 4 -16 -3 -18 -2 -9 5 11 7 11 10 -2 15 -8 3 -17 1 -19 -6 -3 -8 -12 -6
-27 8 -13 11 -20 14 -16 8 4 -7 2 -13 -3 -13 -6 0 -11 4 -11 9 0 5 -9 7 -20 4
-28 -7 -25 -22 7 -34 14 -5 53 -30 87 -55 84 -64 108 -74 178 -80 67 -4 147
-41 180 -84 11 -14 23 -24 26 -23 4 1 6 -5 4 -12 -2 -9 3 -13 12 -9 23 9 65
-24 59 -47 -5 -18 -6 -18 -18 -2 -7 10 -11 21 -9 25 2 4 0 10 -6 13 -6 4 -9 1
-8 -6 2 -6 -3 -14 -11 -17 -8 -2 -11 0 -8 5 3 5 -1 10 -9 10 -10 0 -11 -4 -5
-10 7 -7 7 -15 -2 -26 -9 -11 -5 -10 14 3 23 15 27 15 32 2 4 -9 2 -18 -3 -21
-6 -4 -10 -1 -10 6 0 10 -3 10 -12 1 -17 -17 -34 -15 -53 5 -10 9 -31 24 -49
33 -17 8 -30 21 -28 29 1 7 -2 10 -6 7 -5 -3 -34 7 -63 23 -30 16 -91 43 -136
61 -45 17 -115 53 -156 80 -76 50 -113 62 -222 75 -33 4 -85 15 -116 26 -89
29 -138 38 -146 26 -3 -5 -1 -7 5 -3 6 3 13 2 17 -4 3 -5 13 -10 22 -10 8 0
41 -18 73 -41 47 -33 74 -44 136 -54 58 -11 90 -23 128 -49 29 -20 110 -64
181 -100 153 -76 215 -118 215 -146 0 -11 -5 -20 -11 -20 -6 0 -8 9 -4 21 5
15 4 19 -4 15 -6 -4 -11 -14 -11 -22 0 -8 -5 -12 -10 -9 -6 4 -7 12 -3 18 3 7
-2 5 -13 -4 -16 -13 -24 -14 -47 -5 -15 7 -24 16 -20 21 5 4 1 6 -7 3 -10 -4
-33 10 -59 32 -25 22 -74 50 -115 65 -39 14 -91 43 -116 64 -61 52 -77 58
-156 71 -45 7 -85 21 -114 40 -107 68 -203 90 -119 26 23 -17 64 -49 90 -72
35 -29 66 -45 105 -53 42 -10 68 -24 107 -58 49 -44 80 -61 179 -97 47 -17 55
-31 36 -62 -4 -6 0 -11 8 -11 11 0 14 7 10 21 -4 16 3 12 25 -14 16 -19 25
-36 19 -38 -5 -2 -7 -9 -3 -15 3 -7 -3 -4 -14 6 -21 19 -53 23 -53 7 0 -5 -5
-10 -11 -10 -7 0 -9 10 -5 28 4 17 3 22 -2 14 -10 -14 -68 -10 -65 4 1 5 -10
9 -23 9 -13 0 -24 -4 -24 -10 0 -5 -4 -4 -9 3 -4 8 -11 13 -15 13 -28 -4 -49
2 -66 19 -11 11 -22 20 -25 19 -8 0 -123 70 -175 107 -25 18 -71 61 -103 95
l-59 62 -71 -6 c-93 -8 -133 2 -205 50 -33 22 -81 46 -107 53 -26 7 -49 20
-52 28 -8 20 -122 72 -159 72 -17 0 -56 15 -88 35 -67 40 -66 40 -66 21 0 -28
64 -66 120 -71 63 -7 98 -25 127 -69 15 -23 37 -39 80 -54 75 -27 126 -78 154
-151 27 -74 42 -88 108 -107 72 -21 113 -42 106 -55 -4 -5 -2 -8 3 -7 5 2 21
-12 36 -30 21 -25 24 -30 9 -25 -16 6 -16 5 -4 -10 7 -9 16 -15 20 -13 4 3 7
-4 7 -14 0 -10 -5 -16 -11 -12 -20 13 -37 10 -73 -11 -20 -12 -33 -16 -29 -10
4 6 1 14 -5 17 -7 3 -2 3 11 0 17 -5 21 -3 16 7 -6 9 -3 11 9 6 10 -4 15 -3
11 3 -3 6 -17 7 -31 4 -20 -5 -24 -2 -24 16 0 17 -4 20 -22 15 -23 -7 -23 -7
-3 10 20 16 20 16 -2 6 -12 -6 -23 -14 -25 -18 -3 -5 -4 -3 -2 3 1 6 -6 16
-17 22 -15 10 -17 9 -13 -6 4 -10 2 -13 -3 -7 -4 6 -41 36 -81 69 -47 38 -74
68 -78 85 -17 83 -18 85 -112 151 -51 37 -108 83 -127 103 -24 26 -42 37 -63
37 -16 0 -49 3 -74 6 -38 5 -48 12 -71 48 -34 54 -94 124 -117 136 -15 8 -10
-8 22 -77 32 -70 49 -95 83 -120 29 -21 46 -28 53 -21 21 21 73 -3 105 -49 21
-29 56 -59 99 -84 74 -44 103 -75 114 -122 3 -18 12 -44 20 -58 10 -20 10 -29
1 -40 -10 -11 -9 -11 4 -1 13 10 20 7 39 -13 23 -24 17 -35 -8 -15 -9 7 -9 7
-2 -2 6 -8 5 -17 -3 -27 -10 -12 -9 -13 3 -6 26 16 47 15 61 -3 11 -14 11 -15
-1 -4 -21 18 -29 15 -25 -9 6 -30 12 -34 29 -20 20 17 28 -2 11 -25 -13 -17
-14 -17 -9 -1 5 13 2 16 -10 11 -9 -3 -13 -11 -9 -18 4 -6 -1 -5 -10 3 -9 7
-14 18 -10 25 4 6 -1 5 -10 -3 -22 -18 -22 -3 1 23 17 21 17 21 -3 5 -11 -9
-26 -14 -33 -12 -11 4 -12 1 -2 -18 l12 -24 -22 24 c-19 19 -20 25 -9 32 8 5
9 9 3 9 -5 0 -16 -6 -22 -12 -10 -10 -15 -10 -22 2 -11 17 -13 9 -4 -14 3 -9
10 -13 15 -10 5 3 9 3 9 0 0 -3 -4 -7 -9 -11 -13 -7 -63 82 -99 178 -28 70
-40 87 -131 177 -74 74 -107 100 -126 100 -28 0 -35 -27 -9 -37 8 -3 29 -30
46 -61 19 -32 49 -67 74 -85 24 -16 47 -42 53 -56 17 -43 32 -122 25 -133 -4
-7 -2 -8 4 -4 12 7 17 -11 13 -43 -2 -8 2 -10 10 -5 8 5 10 3 4 -5 -5 -9 -11
-9 -18 -2 -13 13 -49 -30 -36 -45 5 -7 4 -11 -5 -11 -8 0 -13 8 -11 18 5 25
-6 60 -17 53 -5 -3 -6 -15 -3 -27 2 -12 2 -16 -1 -10 -4 9 -11 10 -25 3 -10
-6 -19 -8 -19 -4 0 3 -9 -4 -20 -17 l-21 -24 21 38 c20 38 28 65 10 37 -8 -13
-13 -13 -30 -2 -19 12 -22 11 -27 -7 -7 -28 -22 -27 -17 2 2 12 2 16 -2 10 -9
-20 -27 -15 -20 5 5 14 4 14 -9 -2 -13 -17 -65 -30 -65 -16 0 13 -50 4 -51
-10 0 -11 -2 -11 -6 -2 -4 10 -8 10 -19 1 -11 -9 -14 -8 -14 5 0 9 6 16 13 16
8 0 7 3 -3 10 -18 11 -17 8 -19 109 l-1 78 -40 27 c-60 39 -69 82 -35 170 20
52 25 79 20 108 -7 38 -7 38 28 38 19 0 40 7 47 15 15 18 4 55 -17 55 -9 0
-13 -6 -9 -15 3 -8 1 -15 -5 -15 -6 0 -17 -7 -25 -15 -22 -22 -47 -19 -39 4 5
16 2 18 -14 14 -16 -4 -20 -16 -24 -66 -2 -34 -17 -115 -32 -181 l-28 -118 38
-35 c32 -29 36 -38 31 -65 -3 -17 -6 -50 -6 -75 0 -27 -4 -42 -10 -38 -5 3
-10 -1 -10 -9 0 -18 -8 -20 -29 -7 -7 5 -10 14 -7 20 11 17 0 13 -20 -6 -17
-17 -17 -17 -12 3 4 18 2 21 -14 16 -15 -3 -16 -7 -7 -13 8 -4 10 -11 6 -15
-18 -19 -27 14 -17 65 14 73 13 79 -10 86 -29 9 -60 -12 -79 -56 -10 -21 -21
-36 -26 -31 -5 4 -5 2 -1 -5 8 -14 -24 -84 -36 -77 -4 3 -13 14 -19 26 -9 16
-8 19 2 13 8 -6 10 -4 4 5 -6 10 -11 9 -21 -5 -8 -10 -17 -16 -20 -12 -4 4 -1
13 6 22 11 13 10 14 -4 9 -24 -9 -20 8 20 89 43 85 65 112 117 139 41 21 74
77 98 170 15 54 11 61 -23 53 -17 -4 -28 -19 -41 -54 -20 -57 -89 -139 -123
-147 -18 -5 -34 -25 -59 -73 -33 -64 -135 -170 -157 -163 -5 1 -7 -2 -4 -7 4
-5 -4 -20 -17 -33 -13 -13 -34 -38 -46 -56 -18 -26 -26 -31 -37 -21 -8 6 -14
17 -14 23 0 6 5 4 10 -4 8 -13 11 -13 27 3 16 16 16 17 -4 17 -12 0 -31 12
-43 28 -12 15 -19 22 -16 15 4 -6 2 -14 -2 -17 -5 -3 -14 6 -20 19 -11 23 -8
28 41 66 28 23 75 56 103 74 28 18 62 48 74 66 60 86 111 138 155 155 61 23
58 38 -7 29 -76 -10 -134 -38 -152 -73 -23 -44 -120 -126 -185 -157 -44 -21
-69 -43 -114 -101 -33 -41 -63 -72 -67 -69 -5 3 -10 -2 -12 -11 -3 -17 -99
-58 -108 -46 -12 16 -30 10 -31 -10 0 -22 -1 -22 -8 -3 -12 28 -2 47 20 40 27
-9 24 0 -8 20 -23 15 -25 15 -20 2 3 -9 2 -19 -3 -22 -6 -4 -10 1 -10 9 0 10
-6 13 -17 9 -22 -8 -17 -2 19 20 25 16 28 16 44 0 16 -16 16 -16 10 5 -5 16
-3 22 7 22 21 0 28 -12 16 -27 -9 -10 -8 -17 1 -28 9 -10 9 -15 1 -15 -6 0
-11 -5 -11 -12 0 -8 7 -6 18 5 14 15 15 19 3 26 -15 10 -7 31 13 31 22 0 47
35 35 47 -13 13 -2 56 12 48 5 -3 6 1 3 9 -10 27 91 106 117 90 5 -3 9 -1 9 3
0 5 23 17 51 27 28 10 75 40 105 66 51 44 90 73 157 114 15 9 27 23 27 31 0
40 -165 -39 -266 -127 -39 -34 -73 -53 -125 -69 -73 -23 -158 -80 -179 -120
-7 -11 -18 -18 -25 -15 -8 3 -15 -3 -17 -12 -2 -9 -10 -17 -18 -17 -44 -2
-111 -19 -121 -31 -6 -8 -18 -14 -25 -14 -8 0 -14 -7 -14 -15 0 -9 -6 -12 -17
-8 -12 5 -14 3 -8 -7 6 -10 4 -12 -10 -6 -15 5 -16 4 -5 -9 16 -20 6 -19 -14
1 -17 17 -16 18 -20 -36 -2 -23 -20 -13 -21 12 0 16 -9 24 -32 30 -30 8 -47
28 -23 28 6 0 10 5 10 11 0 5 -6 7 -12 4 -7 -4 1 5 17 20 44 38 121 76 168 81
55 7 97 26 189 85 43 28 96 56 117 64 85 30 251 133 251 156 0 24 -35 19 -83
-12 -91 -57 -190 -106 -263 -129 -39 -12 -82 -32 -96 -45 -32 -30 -128 -78
-198 -100 -30 -9 -77 -25 -104 -36 -27 -10 -53 -16 -59 -12 -6 3 -7 1 -3 -5 4
-7 1 -12 -9 -12 -10 0 -13 -5 -9 -12 5 -8 2 -9 -10 -5 -9 4 -15 3 -12 -2 3 -4
-4 -17 -14 -27 -11 -10 -30 -28 -41 -39 l-21 -20 6 25 6 25 -13 -25 c-13 -26
-57 -34 -65 -11 -5 14 -32 15 -32 1 0 -15 -16 -12 -34 6 -9 8 -20 12 -26 9 -5
-3 -10 -1 -10 5 0 13 52 45 110 67 28 11 66 39 102 75 56 59 57 59 145 74 117
19 171 45 207 98 23 33 45 50 102 76 41 18 81 43 90 56 10 12 22 20 28 18 15
-5 42 13 33 22 -10 11 -127 -47 -120 -59 3 -6 1 -7 -5 -3 -6 4 -25 0 -41 -9
-17 -8 -34 -15 -38 -14 -27 5 -48 -6 -87 -41 -54 -50 -109 -74 -214 -94 -98
-19 -114 -26 -168 -78 -39 -37 -165 -98 -204 -98 -10 0 -23 -7 -30 -15 -7 -8
-9 -15 -6 -15 4 0 1 -7 -8 -15 -16 -16 -31 -20 -22 -7 3 5 -1 9 -8 9 -8 0 -12
-6 -9 -14 3 -7 0 -13 -6 -13 -6 0 -8 -7 -5 -15 4 -8 1 -15 -6 -15 -6 0 -8 5
-5 10 3 6 1 10 -4 10 -6 0 -11 5 -11 11 0 5 5 7 11 3 7 -4 10 -1 7 6 -2 8 -10
16 -18 18 -8 3 -10 0 -5 -8 6 -10 4 -12 -8 -7 -10 4 -17 2 -17 -4 0 -7 -12 -9
-30 -7 -16 2 -31 0 -33 -6 -3 -6 -8 -8 -12 -4 -13 13 170 128 229 143 38 10
56 18 56 27 0 5 4 7 8 4 5 -3 28 13 51 34 24 22 48 37 53 33 6 -3 8 -1 4 5
-11 18 9 25 113 43 29 5 69 17 90 25 20 9 43 17 51 19 41 10 114 42 117 51 2
5 -10 11 -27 12 -36 3 -171 -48 -163 -61 3 -6 2 -7 -4 -4 -5 3 -54 -3 -109
-13 -75 -15 -110 -28 -144 -52 -115 -81 -162 -107 -250 -138 -52 -19 -101 -40
-108 -46 -6 -7 -22 -16 -35 -19 -12 -4 -31 -16 -43 -26 -17 -16 -26 -18 -48
-9 -16 6 -24 15 -20 21 4 8 9 7 15 -2 7 -11 9 -11 9 2 0 9 -7 20 -16 23 -8 3
-12 2 -9 -4 3 -6 1 -10 -4 -10 -6 0 -11 9 -11 20 0 18 3 19 20 10 16 -9 18 -8
14 5 -5 13 1 17 22 14 4 0 10 4 14 11 4 6 17 12 28 13 12 1 22 4 22 7 0 4 6 7
13 7 26 2 184 65 214 86 31 21 48 52 34 61 -4 3 -47 -15 -97 -39 -81 -41 -183
-76 -226 -78 -10 -1 -18 -5 -18 -10 0 -5 -7 -7 -15 -3 -8 3 -15 0 -15 -6 0 -7
-6 -6 -16 2 -12 11 -15 11 -12 -1 2 -8 -3 -13 -9 -11 -7 1 -13 -3 -13 -9 0 -5
-4 -8 -9 -5 -5 4 -11 2 -13 -3 -1 -5 -10 -11 -18 -13 -8 -2 -18 -7 -22 -13 -5
-6 -8 -5 -8 3 0 6 -5 12 -11 12 -5 0 -7 -5 -3 -11 5 -8 1 -8 -14 0 -15 8 -22
8 -25 -2 -3 -6 -4 -2 -4 10 1 18 6 21 24 17 15 -4 23 -2 24 7 0 8 4 5 9 -6 8
-19 9 -19 9 3 1 12 -4 22 -11 22 -6 0 -9 2 -6 5 13 13 36 -8 32 -28 -4 -21 -4
-21 5 -2 5 12 5 25 -2 33 -7 9 -7 16 1 24 7 7 12 8 12 4 0 -5 6 -4 13 1 6 5
67 25 135 43 87 25 122 39 122 50 0 13 1 13 10 0 9 -13 14 -7 11 12 0 4 7 4
16 1 10 -4 14 -2 10 4 -4 6 2 18 13 28 15 14 23 15 34 6 15 -13 49 -4 40 10
-3 5 2 9 11 9 10 0 13 -5 9 -12 -4 -7 -3 -8 5 -4 6 4 8 13 4 19 -4 7 0 6 10
-2 11 -9 17 -10 17 -2 0 6 5 11 11 11 5 0 8 -3 6 -7 -3 -5 19 -8 49 -8 30 0
54 2 54 5 0 3 20 4 45 3 33 -1 43 2 38 10 -5 9 -3 9 8 0 32 -26 204 33 191 65
-5 13 -7 12 -13 -4 -5 -13 -8 -15 -9 -4 -1 10 -4 9 -10 -5 -6 -13 -9 -15 -9
-5 -1 13 -2 13 -11 0 -5 -8 -10 -10 -10 -4 0 6 -7 11 -15 11 -8 0 -15 -4 -15
-9 0 -5 -4 -6 -10 -3 -5 3 -10 0 -10 -7 0 -9 -3 -9 -10 2 -5 8 -10 10 -10 5 0
-6 -12 -10 -27 -11 -16 0 -48 -4 -73 -7 -38 -6 -175 -18 -217 -20 -7 0 -13 -5
-13 -11 0 -6 -7 -3 -14 6 -7 10 -15 15 -18 13 -3 -3 -15 -7 -27 -10 -11 -2
-56 -20 -98 -39 -47 -20 -121 -43 -185 -55 -75 -14 -132 -32 -189 -60 -61 -29
-87 -37 -100 -31 -13 8 -16 6 -13 -8 6 -22 -42 -46 -65 -32 -10 6 -11 10 -3
10 8 0 5 10 -10 30 -19 26 -23 28 -31 14 -7 -13 -11 -14 -17 -3 -7 10 -11 10
-24 0 -14 -11 -16 -11 -16 3 0 10 4 15 9 11 5 -3 17 2 25 11 9 8 16 12 16 8 0
-3 6 -2 13 3 23 19 89 36 227 59 19 3 80 21 136 39 56 18 115 36 133 40 17 4
29 10 27 13 -2 4 21 8 52 10 65 4 75 9 47 25 -25 15 -58 16 -67 2 -5 -6 -8 -6
-8 2 0 20 -75 6 -131 -25 -73 -41 -148 -61 -249 -68 -57 -4 -119 -17 -189 -39
-58 -19 -108 -32 -112 -29 -4 2 -9 0 -11 -6 -1 -5 -59 -17 -128 -25 -69 -8
-141 -17 -160 -19 -24 -4 -30 -3 -20 4 12 7 10 9 -7 7 -12 0 -21 -5 -20 -10 1
-5 -15 -11 -35 -13 -25 -3 -38 -1 -38 7 0 7 -3 9 -6 6 -4 -4 -1 -13 5 -21 9
-11 9 -16 0 -22 -8 -4 -9 -3 -5 4 5 8 -3 11 -24 8 -17 -2 -33 0 -36 5 -3 5 0
10 5 10 6 1 15 2 21 3 5 0 15 7 22 14 6 6 23 12 36 12 13 0 21 4 18 8 -5 8 1
10 42 13 9 1 22 5 27 9 6 4 51 13 100 20 109 14 184 32 290 70 73 25 133 38
270 56 65 8 134 32 164 55 27 21 21 25 -12 7 -12 -6 -35 -13 -51 -15 -17 -2
-33 -9 -38 -16 -6 -9 -8 -9 -8 1 0 7 -4 11 -8 8 -10 -6 -70 -13 -179 -21 -51
-4 -116 -17 -170 -36 -108 -37 -161 -49 -238 -55 -106 -9 -199 -26 -255 -47
-70 -27 -83 -29 -77 -12 4 10 -2 9 -26 -3 -44 -21 -47 -25 -13 -16 21 5 27 4
22 -5 -4 -6 -11 -9 -16 -6 -5 3 -11 1 -15 -5 -3 -5 -13 -10 -21 -10 -9 0 -12
5 -8 11 4 8 -1 9 -17 5 -23 -7 -23 -7 -5 8 11 9 25 16 32 16 7 0 14 7 16 16 3
19 185 79 264 88 198 24 215 35 49 31 -150 -3 -263 -27 -257 -55 3 -11 0 -11
-13 0 -8 7 -18 10 -21 7 -3 -3 -45 8 -93 26 -104 38 -223 44 -280 14 -19 -9
-35 -16 -36 -15 -1 2 -5 65 -8 140 -4 98 -2 140 6 146 7 5 71 12 142 16 132 7
349 25 600 51 204 21 223 22 530 40 154 9 286 20 293 23 7 4 23 36 35 72 12
36 32 78 45 94 24 31 80 76 95 76 12 0 -2 -39 -29 -80 -18 -27 -64 -139 -64
-157 0 -1 7 -3 15 -3 8 0 15 6 15 13 0 8 3 9 8 1 5 -8 58 -8 192 2 155 11 803
32 1046 35 l69 0 -43 19 c-84 38 -222 153 -252 210 l-13 25 24 -21 c79 -70
345 -224 385 -224 16 0 17 2 4 11 -12 8 -10 9 10 7 34 -4 32 18 -5 42 l-29 19
44 -2 c63 -3 63 19 1 69 -67 52 -65 62 4 19 30 -19 63 -35 75 -35 23 0 24 4
10 31 -9 17 -7 19 18 19 41 0 46 10 20 38 l-23 25 23 -12 c34 -18 28 4 -18 65
-57 76 -49 79 18 6 61 -66 77 -74 87 -43 4 14 12 17 27 13 17 -4 20 -2 15 12
-6 14 -3 16 14 11 18 -6 20 -4 14 17 -4 12 -20 51 -35 86 -34 72 -35 75 -23
79 5 2 14 -11 21 -29 19 -52 75 -144 79 -131 2 7 11 9 20 6 13 -5 15 -1 9 23
-6 29 -6 29 11 8 10 -11 24 -19 31 -18 6 1 19 2 28 3 17 1 17 36 -1 169 -3 17
-1 32 4 32 4 0 11 -21 15 -46 8 -59 23 -114 36 -134 9 -13 12 -13 21 3 10 18
11 18 24 0 13 -17 14 -17 23 7 9 22 11 23 17 8 4 -10 13 -18 20 -18 8 0 17 32
25 95 7 52 17 95 21 95 5 0 7 -10 4 -22z m1521 -25 c23 -40 29 -62 32 -136 4
-71 2 -87 -9 -85 -20 4 -27 26 -28 78 -1 28 -11 63 -26 92 -21 40 -23 51 -13
73 6 14 12 25 14 25 1 0 15 -21 30 -47z m-6326 -11 c-8 -3 -18 -10 -22 -16 -5
-6 -8 -2 -8 11 0 17 4 20 22 15 16 -4 18 -7 8 -10z m2726 -9 c-10 -10 -19 5
-10 18 6 11 8 11 12 0 2 -7 1 -15 -2 -18z m348 -75 c-6 -35 -20 -54 -89 -122
-67 -67 -89 -98 -128 -176 -25 -52 -49 -108 -52 -124 -3 -15 -8 -26 -11 -24
-6 6 40 182 63 241 27 69 74 129 149 191 37 31 69 56 71 56 2 0 0 -19 -3 -42z
m-3037 -10 c-3 -7 -5 -2 -5 12 0 14 2 19 5 13 2 -7 2 -19 0 -25z m-120 0 c-3
-8 -6 -5 -6 6 -1 11 2 17 5 13 3 -3 4 -12 1 -19z m2573 -26 c0 -24 -2 -25 -15
-11 -9 9 -13 23 -9 32 9 24 24 11 24 -21z m-403 -211 c-15 -6 -18 6 -10 50 l8
44 5 -45 c3 -25 1 -47 -3 -49z m4893 69 c0 -11 -7 -20 -15 -20 -8 0 -15 9 -15
20 0 11 7 20 15 20 8 0 15 -9 15 -20z m-4636 -32 c23 -38 -36 -77 -64 -43 -10
12 -10 21 -1 41 13 29 47 30 65 2z m5854 -26 c-5 -25 -35 -27 -43 -3 -3 12 -3
25 0 31 10 16 47 -8 43 -28z m-6571 -68 c8 -21 -13 -42 -28 -27 -13 13 -5 43
11 43 6 0 13 -7 17 -16z m-417 -573 c0 -6 8 -8 18 -7 9 2 44 -6 76 -18 44 -17
56 -25 45 -31 -15 -10 -14 -10 -79 -20 -25 -3 -63 -10 -85 -15 -53 -12 -55
-12 -55 4 0 9 -9 14 -20 13 -25 -2 -27 -17 -2 -18 16 -1 16 -2 -1 -6 -9 -2
-14 -9 -11 -15 4 -5 -4 -4 -17 3 -22 11 -23 11 -10 -5 12 -14 12 -16 -3 -10
-9 3 -16 11 -16 18 0 11 29 34 40 32 3 -1 21 16 41 37 26 28 41 36 54 31 13
-5 16 -4 11 4 -4 7 -2 12 3 12 6 0 11 -4 11 -9z m7846 0 c-3 -5 39 -12 94 -16
55 -3 100 -11 100 -15 0 -5 -48 -11 -107 -12 l-108 -3 2 -59 c1 -32 4 -60 7
-63 2 -2 33 -6 67 -7 150 -7 147 -6 119 -17 -15 -7 -58 -8 -109 -4 l-83 7 6
-114 c12 -199 35 -249 124 -263 77 -13 83 -15 80 -33 -5 -25 -122 -23 -167 4
-67 39 -87 131 -93 425 -3 133 2 151 47 169 27 11 27 11 21 1z m-6166 -43 c0
-13 -23 -5 -28 10 -2 7 2 10 12 6 9 -3 16 -11 16 -16z m5500 -48 c0 -5 -4 -10
-10 -10 -5 0 -10 -7 -10 -15 0 -9 -6 -12 -15 -8 -14 5 -14 8 1 24 19 21 34 25
34 9z m-6960 -9 c0 -12 -57 -34 -69 -27 -5 3 -12 0 -14 -6 -4 -10 -8 -10 -15
1 -8 11 -11 9 -17 -8 -4 -13 -9 -20 -12 -18 -2 3 1 15 7 27 10 18 18 21 41 16
20 -4 28 -2 23 5 -4 7 1 9 15 4 12 -4 21 -2 21 4 0 6 5 11 10 11 6 0 10 -4 10
-9z m6964 -27 c3 -8 2 -12 -4 -9 -6 3 -10 10 -10 16 0 14 7 11 14 -7z m-7110
-10 c3 -8 2 -12 -4 -9 -6 3 -10 10 -10 16 0 14 7 11 14 -7z m-27 -16 c2 -18 0
-20 -7 -8 -12 18 -13 30 -2 30 4 0 9 -10 9 -22z m109 3 c-4 -5 0 -12 6 -14 8
-3 6 -6 -4 -6 -10 -1 -18 6 -18 14 0 8 5 15 11 15 5 0 8 -4 5 -9z m-161 -13
c5 4 5 1 1 -6 -6 -10 -11 -10 -22 -1 -8 6 -14 14 -14 16 0 3 6 0 13 -6 8 -6
18 -7 22 -3z m133 0 c-2 -6 -10 -14 -16 -16 -7 -2 -10 2 -6 12 7 18 28 22 22
4z m6522 8 c0 -3 -4 -8 -10 -11 -5 -3 -10 -1 -10 4 0 6 5 11 10 11 6 0 10 -2
10 -4z m-6562 -27 c3 -11 2 -11 -6 -1 -7 11 -11 10 -16 -4 -3 -9 -9 -15 -11
-12 -3 3 -3 13 1 22 7 19 26 17 32 -5z m-82 -14 c-11 -8 -25 -15 -30 -15 -6 1
0 7 14 15 32 19 40 18 16 0z m864 6 c0 -12 -30 -22 -43 -14 -7 4 -3 9 9 14 26
10 34 10 34 0z m3751 -57 c77 -69 133 -102 208 -125 26 -8 46 -20 49 -31 2
-10 8 -15 13 -12 11 7 11 1 0 -29 -12 -31 -71 -55 -72 -29 0 10 -3 12 -6 5 -8
-21 -26 -15 -20 6 4 17 0 19 -25 16 -23 -3 -28 0 -24 11 4 9 2 12 -5 8 -6 -3
-23 5 -37 18 -36 33 -179 148 -219 177 -49 33 -43 51 16 51 46 0 53 -4 122
-66z m-4760 14 c-20 -23 -20 -23 -19 11 1 25 3 28 18 19 16 -10 16 -13 1 -30z
m826 6 c-3 -3 -12 -4 -19 -1 -8 3 -5 6 6 6 11 1 17 -2 13 -5z m503 -8 c0 -2
-7 -7 -16 -10 -8 -3 -12 -2 -9 4 6 10 25 14 25 6z m40 -6 c0 -5 -7 -7 -15 -4
-8 4 -15 8 -15 10 0 2 7 4 15 4 8 0 15 -4 15 -10z m4617 -16 c-3 -3 -12 -4
-19 -1 -8 3 -5 6 6 6 11 1 17 -2 13 -5z m40 0 c-3 -3 -12 -4 -19 -1 -8 3 -5 6
6 6 11 1 17 -2 13 -5z m23 -29 c-6 -8 -18 -11 -26 -8 -20 7 -18 14 4 11 10 -2
16 2 14 10 -1 8 2 11 8 7 8 -5 8 -11 0 -20z m880 9 c0 -8 -19 -13 -24 -6 -3 5
1 9 9 9 8 0 15 -2 15 -3z m-5440 -44 c0 -6 10 -21 23 -34 22 -22 22 -23 3 -42
-18 -19 -18 -19 -7 4 6 12 8 22 4 22 -16 1 -54 40 -48 50 8 13 25 13 25 0z
m-43 -42 c-3 -7 -5 -2 -5 12 0 14 2 19 5 13 2 -7 2 -19 0 -25z m4463 2 c-6
-11 -15 -20 -20 -20 -6 0 -2 9 7 20 10 11 19 20 21 20 1 0 -2 -9 -8 -20z
m-4494 1 c-3 -5 1 -14 9 -21 8 -7 15 -17 15 -22 0 -6 -9 0 -19 13 -17 21 -19
39 -5 39 3 0 3 -4 0 -9z m64 -11 c6 -11 8 -20 6 -20 -3 0 -10 9 -16 20 -6 11
-8 20 -6 20 3 0 10 -9 16 -20z m1297 -25 c-4 -8 -13 -15 -22 -15 -21 0 -19 28
3 32 22 5 26 2 19 -17z m-987 11 c0 -3 -4 -8 -10 -11 -5 -3 -10 -1 -10 4 0 6
5 11 10 11 6 0 10 -2 10 -4z m4057 -2 c-3 -3 -12 -4 -19 -1 -8 3 -5 6 6 6 11
1 17 -2 13 -5z m-4088 -7 c-2 -2 -12 -9 -21 -16 -15 -11 -18 -11 -18 1 0 7 10
14 21 15 12 1 20 1 18 0z m4151 -1 c0 -2 -11 -6 -25 -8 -14 -3 -25 -1 -25 3 0
5 11 9 25 9 14 0 25 -2 25 -4z m-4130 -27 c0 -5 5 -7 12 -3 7 5 8 3 3 -6 -6
-10 -4 -12 11 -6 14 5 16 4 8 -4 -9 -9 -17 -8 -33 2 -22 14 -28 28 -11 28 6 0
10 -5 10 -11z m1515 1 c3 -5 1 -10 -4 -10 -6 0 -11 5 -11 10 0 6 2 10 4 10 3
0 8 -4 11 -10z m-1193 -24 c10 1 20 -2 24 -7 3 -5 -1 -9 -10 -9 -8 0 -16 -6
-19 -12 -3 -9 -11 -6 -26 10 -12 12 -19 27 -15 34 5 8 10 7 18 -4 6 -8 19 -14
28 -12z m216 10 c-2 -1 -10 -7 -20 -14 -12 -10 -18 -10 -24 -1 -5 8 -3 9 6 4
10 -6 12 -4 7 7 -4 12 -1 14 14 11 11 -3 18 -6 17 -7z m649 0 c-3 -8 1 -17 10
-20 9 -4 13 -9 10 -13 -11 -10 -36 17 -30 33 3 8 7 14 10 14 3 0 3 -6 0 -14z
m2643 -8 c0 -7 -5 -6 -13 1 -8 6 -18 7 -22 3 -5 -4 -5 -2 -1 5 8 14 36 6 36
-9z m24 -3 c-4 -8 -8 -15 -10 -15 -2 0 -4 7 -4 15 0 8 4 15 10 15 5 0 7 -7 4
-15z m54 -20 c-3 -3 -9 2 -12 12 -6 14 -5 15 5 6 7 -7 10 -15 7 -18z m-3631
-23 c-10 -2 -14 -8 -11 -14 4 -7 2 -8 -4 -4 -6 4 -9 13 -5 21 3 8 0 15 -6 15
-6 0 -11 5 -11 10 0 6 12 3 27 -7 22 -15 24 -19 10 -21z m571 25 c11 3 13 2 5
-4 -8 -6 -9 -14 -3 -23 8 -13 10 -13 10 -1 0 20 10 8 15 -17 2 -11 -3 -23 -11
-26 -7 -3 -13 -2 -12 2 4 15 -14 52 -22 47 -5 -3 -7 -11 -4 -18 2 -7 -4 -17
-15 -24 -18 -12 -19 -11 -5 15 8 15 14 36 15 47 0 11 3 15 5 8 3 -7 13 -9 22
-6z m2006 -3 c3 -8 2 -12 -4 -9 -6 3 -10 10 -10 16 0 14 7 11 14 -7z m-643
-17 c-15 -15 -54 -20 -46 -6 4 6 13 8 21 5 8 -3 14 1 14 10 0 8 5 12 11 8 8
-4 8 -9 0 -17z m159 4 c0 -4 -6 -8 -14 -8 -8 0 -12 6 -9 14 5 13 23 9 23 -6z
m925 9 c3 -5 1 -10 -4 -10 -6 0 -11 5 -11 10 0 6 2 10 4 10 3 0 8 -4 11 -10z
m-35 -7 c-1 -19 -18 -33 -33 -27 -9 3 -14 10 -11 16 3 5 12 7 20 4 8 -3 14 -1
14 4 0 6 2 10 5 10 3 0 5 -3 5 -7z m338 -18 c-3 -3 -9 2 -12 12 -6 14 -5 15 5
6 7 -7 10 -15 7 -18z m232 15 c0 -5 -7 -7 -15 -4 -8 4 -15 8 -15 10 0 2 7 4
15 4 8 0 15 -4 15 -10z m-1554 -9 c-4 -5 0 -11 6 -14 8 -2 9 -8 4 -13 -5 -5
-11 -4 -13 4 -3 6 -10 9 -16 5 -7 -4 -6 1 2 10 14 18 26 23 17 8z m274 -37 c0
-3 -7 -1 -15 6 -8 7 -15 17 -15 22 0 5 7 3 15 -6 8 -8 15 -18 15 -22z m-360
12 c0 -2 -7 -7 -16 -10 -8 -3 -12 -2 -9 4 6 10 25 14 25 6z m840 -30 c0 -2 -8
-10 -17 -17 -16 -13 -17 -12 -4 4 13 16 21 21 21 13z m3230 -120 c0 -2 -46
-16 -102 -31 -57 -16 -134 -42 -173 -58 -98 -41 -118 -44 -113 -21 4 24 95 70
185 95 58 15 203 26 203 15z m-272 -221 c28 -9 88 -33 134 -54 46 -21 130 -50
188 -66 58 -15 124 -36 146 -47 44 -20 81 -54 72 -64 -21 -21 -488 112 -488
139 0 2 9 3 19 3 11 0 17 -4 15 -8 -3 -4 3 -5 12 -1 14 5 13 9 -11 27 -16 12
-58 35 -94 53 -73 35 -71 41 7 18z m-8658 -265 c0 -33 -4 -60 -9 -60 -5 0 -15
-2 -23 -5 -10 -4 -12 7 -9 47 3 51 14 78 32 78 5 0 9 -27 9 -60z m9412 -79
c-20 -32 -42 -67 -48 -77 -20 -33 -27 -6 -10 39 17 46 72 110 87 102 4 -3 -9
-32 -29 -64z m-9336 1 c13 -8 17 -28 15 -89 -1 -42 -1 -42 -53 -58 -28 -8 -55
-15 -60 -15 -16 0 12 39 32 45 11 3 25 15 30 25 10 18 7 19 -40 13 -61 -7 -66
7 -11 32 22 9 41 26 44 36 5 20 23 24 43 11z m8317 -19 c43 -12 84 -20 90 -17
10 3 214 -170 467 -398 30 -27 135 -120 233 -206 97 -86 177 -163 177 -172 0
-9 -15 -25 -32 -35 -33 -20 -81 -20 -4767 -23 l-4735 -2 -43 21 c-27 13 -43
27 -43 39 0 10 34 45 78 81 42 35 142 122 222 194 252 225 551 488 571 503 10
7 19 9 19 4 0 -5 29 -3 68 5 37 8 90 18 117 23 28 4 1726 7 3775 6 l3725 -1
78 -22z m1077 -78 c0 -2 -21 -13 -46 -25 -26 -11 -89 -52 -141 -91 -51 -40
-96 -69 -99 -67 -2 3 13 26 34 52 44 54 131 116 177 127 36 8 75 11 75 4z
m-6737 -1183 c6 -13 -20 -75 -27 -63 -5 8 -258 11 -982 11 -536 0 -974 4 -974
8 0 13 23 39 40 45 23 8 1939 8 1943 -1z m-2024 -57 c-13 -19 -28 -35 -34 -36
-5 0 -32 -2 -58 -4 -52 -3 -62 -9 -70 -40 -3 -11 -5 -1 -6 21 -1 24 5 46 12
53 14 11 169 50 176 45 2 -2 -7 -19 -20 -39z m2147 0 c18 -11 24 -24 23 -48 0
-17 -3 -26 -6 -19 -2 6 -11 12 -19 12 -8 0 -26 7 -39 16 -14 9 -34 14 -45 11
-16 -4 -20 0 -20 17 0 13 3 26 8 30 10 11 70 0 98 -19z m-2391 -52 c-19 -5
-35 -20 -35 -35 0 -5 15 -9 33 -9 l32 -1 -30 -7 c-45 -10 -78 -2 -69 18 3 9 7
22 7 29 0 8 15 12 41 11 23 -1 32 -4 21 -6z m2548 1 c11 -4 13 -13 8 -32 -6
-24 -13 -27 -52 -29 -38 -2 -41 -1 -19 8 14 5 33 8 42 5 10 -2 18 0 18 4 0 9
-14 14 -67 25 -18 4 -33 11 -33 16 0 10 79 13 103 3z m-2354 -20 c2 -2 -19 -4
-47 -4 -29 0 -52 5 -52 10 0 10 88 4 99 -6z m1563 9 c-259 -2 -685 -2 -945 0
-259 1 -47 2 473 2 520 0 732 -1 472 -2z"/>
<path d="M2601 9451 c-13 -23 -2 -60 23 -80 14 -12 16 -12 10 3 -4 10 0 18 10
22 9 3 16 12 16 20 0 17 -16 18 -24 2 -3 -7 -4 0 -3 16 2 35 -17 45 -32 17z"/>
<path d="M9594 8110 c-13 -5 -27 -25 -34 -45 -11 -33 -10 -40 7 -64 28 -36 71
-39 106 -7 66 62 6 150 -79 116z"/>
<path d="M7990 7206 c0 -2 7 -9 15 -16 12 -10 15 -10 15 4 0 9 -7 16 -15 16
-8 0 -15 -2 -15 -4z"/>
<path d="M2656 7009 c-3 -13 -7 -51 -8 -84 -3 -59 -2 -60 25 -63 24 -3 27 0
26 25 -1 90 -32 174 -43 122z"/>
<path d="M2646 6822 c-10 -17 7 -152 21 -163 7 -7 15 -10 17 -8 2 2 7 43 11
92 l7 87 -26 0 c-13 0 -27 -4 -30 -8z"/>
<path d="M2078 6498 c-21 -16 -38 -35 -38 -42 0 -7 16 -29 35 -51 l35 -38 35
39 c19 21 34 44 35 50 0 5 -15 24 -32 41 l-33 32 -37 -31z"/>
<path d="M4846 6254 c-3 -9 -6 -33 -6 -55 l0 -39 55 0 55 0 0 49 c0 42 -3 49
-22 55 -41 11 -76 6 -82 -10z"/>
<path d="M6170 6125 l0 -135 48 0 49 0 6 120 c3 67 4 127 0 135 -3 10 -20 15
-54 15 l-49 0 0 -135z"/>
<path d="M4070 6125 l0 -135 34 0 c66 0 66 -1 66 141 l0 129 -50 0 -50 0 0
-135z"/>
<path d="M8300 6008 c-25 -42 -25 -52 2 -96 l21 -35 34 36 c18 20 33 41 33 45
0 14 -44 75 -57 79 -7 3 -22 -10 -33 -29z"/>
<path d="M441 4844 c0 -11 3 -14 6 -6 3 7 2 16 -1 19 -3 4 -6 -2 -5 -13z"/>
<path d="M435 4799 c-5 -8 -4 -10 3 -5 8 5 12 -4 13 -26 2 -32 2 -32 6 -4 5
32 -10 55 -22 35z"/>
<path d="M461 4674 c0 -11 3 -14 6 -6 3 7 2 16 -1 19 -3 4 -6 -2 -5 -13z"/>
<path d="M453 4635 c-3 -9 -3 -18 -1 -21 3 -3 8 4 11 16 6 23 -1 27 -10 5z"/>
<path d="M482 4270 c0 -19 2 -27 5 -17 2 9 2 25 0 35 -3 9 -5 1 -5 -18z"/>
<path d="M5116 4211 c-4 -7 -5 -15 -2 -18 9 -9 19 4 14 18 -4 11 -6 11 -12 0z"/>
<path d="M4815 4170 c3 -5 8 -10 11 -10 2 0 4 5 4 10 0 6 -5 10 -11 10 -5 0
-7 -4 -4 -10z"/>
<path d="M5012 4165 c-23 -17 -29 -40 -12 -50 11 -7 44 39 38 55 -2 6 -12 4
-26 -5z"/>
<path d="M1897 4159 c7 -7 15 -10 18 -7 3 3 -2 9 -12 12 -14 6 -15 5 -6 -5z"/>
<path d="M4915 4160 c-3 -6 1 -7 9 -4 18 7 21 14 7 14 -6 0 -13 -4 -16 -10z"/>
<path d="M1935 4150 c-3 -5 -1 -10 4 -10 6 0 11 5 11 10 0 6 -2 10 -4 10 -3 0
-8 -4 -11 -10z"/>
<path d="M1995 4149 c-11 -16 -1 -19 13 -3 7 8 8 14 3 14 -5 0 -13 -5 -16 -11z"/>
<path d="M4760 4146 c0 -2 7 -7 16 -10 8 -3 12 -2 9 4 -6 10 -25 14 -25 6z"/>
<path d="M8288 4143 c7 -3 16 -2 19 1 4 3 -2 6 -13 5 -11 0 -14 -3 -6 -6z"/>
<path d="M4880 4130 c0 -5 -16 -25 -35 -45 l-34 -37 27 6 c15 4 33 8 40 9 30
7 43 61 17 71 -8 3 -15 1 -15 -4z"/>
<path d="M1521 4119 c-69 -12 -83 -24 -17 -15 27 3 59 6 72 6 13 0 24 5 24 10
0 11 -4 11 -79 -1z"/>
<path d="M1630 4121 c0 -5 18 -11 40 -13 46 -4 41 6 -7 15 -18 4 -33 3 -33 -2z"/>
<path d="M4712 4109 c-10 -16 -9 -17 18 -7 35 12 36 14 12 20 -11 3 -23 -2
-30 -13z"/>
<path d="M8554 4119 c-10 -3 -22 -5 -26 -2 -5 2 -8 -1 -8 -7 0 -6 -11 -8 -27
-5 -22 5 -24 4 -12 -4 11 -7 35 -6 80 4 35 7 62 14 59 15 -17 6 -50 5 -66 -1z"/>
<path d="M8654 4118 c-5 -8 -2 -9 11 -5 9 4 23 3 30 -3 8 -7 12 -5 12 5 0 18
-42 20 -53 3z"/>
<path d="M4080 4110 c0 -5 5 -10 11 -10 5 0 7 5 4 10 -3 6 -8 10 -11 10 -2 0
-4 -4 -4 -10z"/>
<path d="M4680 4111 c0 -8 -8 -11 -19 -8 -13 3 -18 0 -15 -7 7 -17 32 -16 39
2 3 8 3 17 0 20 -3 3 -5 0 -5 -7z"/>
<path d="M8740 4110 c0 -5 9 -10 21 -10 11 0 17 5 14 10 -3 6 -13 10 -21 10
-8 0 -14 -4 -14 -10z"/>
<path d="M1746 4099 c3 -5 12 -9 21 -9 19 0 9 13 -12 16 -8 1 -13 -2 -9 -7z"/>
<path d="M5823 4100 c4 -18 93 -67 103 -57 4 4 2 13 -4 19 -9 9 -12 9 -12 0 0
-6 -7 -9 -16 -5 -13 5 -13 8 -2 15 9 6 6 7 -9 3 -18 -5 -23 -2 -23 12 0 14 -2
15 -9 4 -7 -11 -11 -10 -20 5 -7 12 -11 13 -8 4z"/>
<path d="M3815 4092 c-12 -13 -4 -23 10 -12 10 8 15 9 15 2 0 -6 7 -9 15 -6 8
4 15 10 15 14 0 8 -46 10 -55 2z"/>
<path d="M3886 4085 c6 -14 64 -13 64 1 0 7 -14 11 -34 10 -18 0 -32 -6 -30
-11z"/>
<path d="M3986 4083 c-6 -14 -5 -15 5 -6 7 7 10 15 7 18 -3 3 -9 -2 -12 -12z"/>
<path d="M4610 4089 c0 -5 5 -7 10 -4 6 3 10 8 10 11 0 2 -4 4 -10 4 -5 0 -10
-5 -10 -11z"/>
<path d="M6035 4091 c-3 -5 -1 -12 4 -15 5 -3 11 1 15 9 6 16 -9 21 -19 6z"/>
<path d="M6641 4084 c0 -11 3 -14 6 -6 3 7 2 16 -1 19 -3 4 -6 -2 -5 -13z"/>
<path d="M3790 4080 c0 -5 -7 -6 -17 -3 -11 4 -14 3 -9 -5 10 -17 36 -15 36 3
0 8 -2 15 -5 15 -3 0 -5 -4 -5 -10z"/>
<path d="M6660 4080 c0 -15 21 -23 32 -12 6 6 2 11 -11 15 -12 3 -21 1 -21 -3z"/>
<path d="M6935 4080 c-3 -5 -2 -10 4 -10 5 0 13 5 16 10 3 6 2 10 -4 10 -5 0
-13 -4 -16 -10z"/>
<path d="M7160 4086 c0 -14 195 -56 210 -46 7 4 -9 11 -36 15 -27 4 -55 12
-63 18 -12 9 -13 9 -7 0 4 -7 2 -13 -3 -13 -6 0 -11 4 -11 8 0 5 -6 9 -12 9
-7 0 -28 4 -45 7 -18 3 -33 4 -33 2z"/>
<path d="M1820 4076 c0 -2 7 -7 16 -10 8 -3 12 -2 9 4 -6 10 -25 14 -25 6z"/>
<path d="M5241 4071 c-11 -7 -13 -25 -8 -77 3 -42 1 -74 -6 -85 -10 -16 -5
-24 30 -54 50 -43 66 -85 53 -140 -8 -35 -7 -42 11 -57 26 -22 68 -23 76 -2 5
13 7 13 14 2 7 -10 9 -8 9 6 0 10 12 29 27 42 15 13 25 25 23 26 -3 2 -14 8
-25 14 -11 6 -31 34 -45 62 -14 28 -35 58 -47 67 -29 20 -67 135 -58 175 6 27
4 30 -17 30 -13 0 -29 -4 -37 -9z"/>
<path d="M6086 4064 c-8 -21 -9 -20 12 -20 10 0 19 6 19 13 0 19 -25 24 -31 7z"/>
<path d="M6964 4069 c-7 -12 15 -31 27 -24 3 3 11 -6 17 -19 12 -27 68 -50
104 -43 21 3 20 5 -9 16 -18 7 -33 18 -33 24 0 8 -4 7 -9 -2 -6 -9 -11 -10
-15 -2 -4 6 -12 9 -17 6 -5 -4 -9 0 -9 8 0 20 -47 50 -56 36z"/>
<path d="M2350 4060 c0 -5 7 -7 15 -4 8 4 15 8 15 10 0 2 -7 4 -15 4 -8 0 -15
-4 -15 -10z"/>
<path d="M4316 4053 c-6 -14 -5 -15 5 -6 7 7 10 15 7 18 -3 3 -9 -2 -12 -12z"/>
<path d="M8786 4057 c3 -10 9 -15 12 -12 3 3 0 11 -7 18 -10 9 -11 8 -5 -6z"/>
<path d="M2305 4050 c-13 -6 -15 -9 -5 -9 8 0 22 4 30 9 18 12 2 12 -25 0z"/>
<path d="M6136 4046 c3 -9 10 -13 15 -10 5 3 9 0 9 -5 0 -6 12 -10 28 -10 20
1 22 3 7 6 -10 3 -30 12 -42 20 -21 14 -23 14 -17 -1z"/>
<path d="M5935 4039 c-11 -17 49 -61 113 -83 31 -11 39 -11 50 0 14 15 16 28
3 19 -5 -3 -34 8 -64 25 -30 16 -57 27 -61 23 -3 -3 -6 -2 -6 4 0 15 -28 24
-35 12z"/>
<path d="M7160 3970 c8 -5 20 -10 25 -10 6 0 3 5 -5 10 -8 5 -19 10 -25 10 -5
0 -3 -5 5 -10z"/>
<path d="M8485 3900 c-3 -5 -1 -10 4 -10 6 0 11 5 11 10 0 6 -2 10 -4 10 -3 0
-8 -4 -11 -10z"/>
<path d="M2597 3837 c4 -18 3 -19 -6 -7 -9 13 -11 13 -11 -1 0 -11 10 -18 29
-21 21 -3 28 -1 24 9 -3 7 -9 10 -14 7 -5 -3 -9 2 -9 10 0 10 6 13 18 9 9 -3
14 -3 11 1 -4 4 -15 8 -27 11 -16 3 -19 -1 -15 -18z"/>
<path d="M7720 3821 c0 -6 5 -13 10 -16 6 -3 10 1 10 9 0 9 -4 16 -10 16 -5 0
-10 -4 -10 -9z"/>
<path d="M8247 3819 c7 -7 15 -10 18 -7 3 3 -2 9 -12 12 -14 6 -15 5 -6 -5z"/>
<path d="M2905 3799 c-11 -16 -1 -19 13 -3 7 8 8 14 3 14 -5 0 -13 -5 -16 -11z"/>
<path d="M2595 3790 c-3 -5 -2 -10 4 -10 5 0 13 5 16 10 3 6 2 10 -4 10 -5 0
-13 -4 -16 -10z"/>
<path d="M7220 3769 c0 -5 5 -7 10 -4 6 3 10 8 10 11 0 2 -4 4 -10 4 -5 0 -10
-5 -10 -11z"/>
<path d="M3020 3701 c0 -6 4 -13 10 -16 6 -3 7 1 4 9 -7 18 -14 21 -14 7z"/>
<path d="M7042 3657 c7 -8 19 -14 26 -14 11 0 10 4 -4 14 -10 7 -22 13 -26 13
-5 0 -3 -6 4 -13z"/>
<path d="M6945 3650 c4 -6 11 -8 16 -5 14 9 11 15 -7 15 -8 0 -12 -5 -9 -10z"/>
<path d="M7025 3640 c3 -5 8 -10 11 -10 2 0 4 5 4 10 0 6 -5 10 -11 10 -5 0
-7 -4 -4 -10z"/>
<path d="M3480 3620 c6 -11 13 -20 16 -20 2 0 0 9 -6 20 -6 11 -13 20 -16 20
-2 0 0 -9 6 -20z"/>
<path d="M6740 3620 c-9 -6 -10 -10 -3 -10 6 0 15 5 18 10 8 12 4 12 -15 0z"/>
<path d="M3555 3610 c-3 -5 -1 -10 4 -10 6 0 11 5 11 10 0 6 -2 10 -4 10 -3 0
-8 -4 -11 -10z"/>
<path d="M5075 3610 c3 -5 8 -10 11 -10 2 0 4 5 4 10 0 6 -5 10 -11 10 -5 0
-7 -4 -4 -10z"/>
<path d="M6160 3609 c-13 -9 -13 -10 1 -6 9 3 22 0 28 -6 9 -9 11 -8 6 6 -8
20 -14 21 -35 6z"/>
<path d="M5320 3600 c-9 -6 -10 -10 -3 -10 6 0 15 5 18 10 8 12 4 12 -15 0z"/>
<path d="M4552 3584 c-7 -8 -12 -19 -10 -23 2 -5 11 2 21 15 19 26 10 33 -11
8z"/>
<path d="M4826 3591 c-4 -7 -5 -15 -2 -18 9 -9 19 4 14 18 -4 11 -6 11 -12 0z"/>
<path d="M5566 3584 c-8 -21 -7 -31 2 -18 4 6 16 16 27 22 20 11 20 11 -1 12
-12 0 -25 -7 -28 -16z"/>
<path d="M6134 3585 c8 -8 19 -15 25 -15 6 0 11 -4 11 -8 0 -4 9 -8 20 -8 28
0 19 21 -9 22 -12 1 -27 6 -34 13 -6 6 -15 11 -20 11 -5 0 -2 -7 7 -15z"/>
<path d="M5506 3577 c3 -10 9 -15 12 -12 3 3 0 11 -7 18 -10 9 -11 8 -5 -6z"/>
<path d="M6840 3581 c0 -6 4 -13 10 -16 6 -3 7 1 4 9 -7 18 -14 21 -14 7z"/>
<path d="M6365 3620 c-3 -6 1 -7 9 -4 18 7 21 14 7 14 -6 0 -13 -4 -16 -10z"/>
<path d="M1513 2701 c-26 -21 -56 -47 -66 -58 -17 -20 -15 -20 485 -26 610 -8
936 -9 963 -1 23 6 85 86 85 109 0 13 -77 15 -709 15 l-709 0 -49 -39z"/>
<path d="M3088 2680 c-44 -55 -46 -58 -25 -64 12 -3 108 -2 214 1 l193 6 30
47 c16 26 30 52 30 58 0 9 -54 12 -197 11 l-198 0 -47 -59z"/>
<path d="M3644 2685 c-21 -30 -34 -59 -30 -63 4 -4 107 -7 229 -7 l222 0 21
40 c12 22 25 50 29 63 l6 22 -220 0 -221 0 -36 -55z"/>
<path d="M4226 2679 c-14 -33 -26 -62 -26 -65 0 -2 106 -4 235 -4 l235 0 10
26 c6 14 13 43 16 65 l7 39 -225 0 -225 0 -27 -61z"/>
<path d="M4842 2698 c-24 -92 -54 -83 267 -83 l283 0 -6 54 c-4 29 -9 58 -12
62 -3 5 -121 9 -263 9 l-258 0 -11 -42z"/>
<path d="M5523 2689 c4 -28 11 -57 17 -64 9 -11 66 -14 260 -15 l249 -1 -15
38 c-9 21 -23 50 -30 66 l-15 27 -236 0 -236 0 6 -51z"/>
<path d="M6150 2722 c0 -10 10 -38 23 -62 l22 -44 263 -3 c154 -1 262 1 262 7
0 11 -39 79 -58 103 -14 15 -39 17 -264 17 -232 0 -248 -1 -248 -18z"/>
<path d="M6801 2728 c0 -7 13 -33 28 -58 19 -32 36 -47 57 -51 16 -4 282 -7
592 -8 l563 -1 -18 31 c-10 17 -31 46 -46 65 l-28 34 -575 0 c-453 0 -574 -3
-573 -12z"/>
<path d="M8100 2732 c0 -23 75 -102 104 -110 17 -4 164 -6 326 -4 l295 4 -65
59 -65 59 -297 0 c-164 0 -298 -4 -298 -8z"/>
<path d="M2060 2573 l-265 -3 -53 -50 c-28 -27 -52 -52 -52 -55 0 -3 303 -5
673 -5 l673 0 37 55 37 55 -98 0 c-53 0 -230 1 -392 3 -162 2 -414 2 -560 0z"/>
<path d="M3433 2572 l-191 -2 -36 -50 c-20 -28 -36 -52 -36 -55 0 -3 729 -5
1620 -4 891 0 1620 3 1620 6 0 4 -14 28 -31 55 l-31 48 -332 1 c-1845 3 -2419
4 -2583 1z"/>
<path d="M6485 2570 c-2 -3 9 -28 23 -55 l27 -50 1028 -3 c576 -1 1027 2 1027
7 0 4 -22 29 -50 55 l-49 46 -228 1 c-773 4 -1775 3 -1778 -1z"/>
<path d="M1638 2423 l-77 -4 -51 -59 -52 -60 229 0 228 0 48 59 c26 32 47 61
47 65 0 6 -222 5 -372 -1z"/>
<path d="M2190 2372 c-25 -31 -46 -60 -48 -64 -2 -5 163 -8 366 -8 l370 0 25
33 c14 17 37 45 51 61 14 16 26 31 26 33 0 1 -168 3 -372 3 l-373 0 -45 -58z"/>
<path d="M3725 2415 c-14 -11 -75 -101 -75 -109 0 -3 657 -6 1460 -6 l1461 0
-27 48 c-15 26 -32 52 -38 59 -14 15 -2762 23 -2781 8z"/>
<path d="M6695 2408 c4 -13 18 -42 31 -65 l25 -43 194 0 c107 0 195 2 195 5 0
3 -21 32 -47 65 l-46 60 -179 0 -179 0 6 -22z"/>
<path d="M7750 2419 c0 -12 59 -101 74 -111 17 -12 288 -10 284 2 -1 5 -21 34
-43 65 l-40 55 -137 0 c-92 0 -138 -4 -138 -11z"/>
<path d="M3113 2365 c-24 -30 -43 -57 -43 -60 0 -3 96 -5 214 -5 l214 0 20 33
c11 19 27 46 37 60 l17 27 -208 0 -209 0 -42 -55z"/>
<path d="M8408 2413 c-115 -2 -208 -7 -208 -12 0 -4 18 -29 41 -55 l41 -46
256 0 256 0 -59 60 c-49 50 -65 60 -90 58 -16 -2 -123 -4 -237 -5z"/>
<path d="M7303 2358 l33 -53 137 -3 c75 -1 137 1 137 5 0 4 -18 29 -41 56
l-41 47 -129 0 -130 0 34 -52z"/>
<path d="M3881 2120 c-62 -66 -109 -120 -104 -120 4 0 608 -1 1341 -2 732 -2
1332 -1 1332 2 0 3 -47 57 -103 120 l-103 115 -1125 3 -1126 2 -112 -120z"/>
<path d="M1295 2060 l-230 -5 0 -25 0 -25 645 0 645 0 0 25 c0 25 -1 25 -110
31 -127 7 -616 7 -950 -1z"/>
</g>
</svg>
